<?xml version="1.0" encoding="utf-8"?>
<!-- Generator: Adobe Illustrator 19.0.0, SVG Export Plug-In . SVG Version: 6.00 Build 0)  -->
<svg version="1.1" id="Layer_1" xmlns="http://www.w3.org/2000/svg" xmlns:xlink="http://www.w3.org/1999/xlink" x="0px" y="0px"
	 viewBox="0 0 612 792" style="enable-background:new 0 0 612 792;" xml:space="preserve">
<g id="XMLID_6_">
	<path id="XMLID_7_" style="fill:#060507;" d="M317,132C180,132,69,243,69,380s111,248,248,248s248-111,248-248S454,132,317,132z
		 M317,538.3c-19.4,0-32.7-14.9-32.7-34.3c0-19.9,13.8-34.3,32.7-34.3c19.9,0,32.7,14.4,32.7,34.3
		C349.7,523.4,336.9,538.3,317,538.3z M329.9,407.3c-4.9,16.8-20.5,17.1-25.7,0c-6-19.8-27.2-94.8-27.2-143.5
		c0-64.3,80.4-64.6,80.4,0C357.4,312.8,335,389.8,329.9,407.3z"/>
</g>
<path id="XMLID_3_" style="fill:#EE3331;" d="M277,263.8c0,48.7,21.2,123.7,27.2,143.5c5.2,17.1,20.7,16.8,25.7,0
	c5.1-17.5,27.5-94.5,27.5-143.5C357.4,199.2,277,199.6,277,263.8z"/>
<path id="XMLID_2_" style="fill:#EE3331;" d="M317,469.7c-18.8,0-32.7,14.4-32.7,34.3c0,19.4,13.3,34.3,32.7,34.3
	c19.9,0,32.7-14.9,32.7-34.3C349.7,484.1,336.9,469.7,317,469.7z"/>
</svg>
