<svg width="51" height="52" viewBox="0 0 51 52" fill="none" xmlns="http://www.w3.org/2000/svg">
<g clip-path="url(#clip0)">
<path d="M44.1281 0H6.87333C3.07791 0 0.000976562 3.13714 0.000976562 7.0071V44.9926C0.000976562 48.8626 3.07778 51.9997 6.87333 51.9997H25.2472L25.2785 33.4179H20.5438C19.9285 33.4179 19.4291 32.9106 19.4267 32.2832L19.404 26.2935C19.4016 25.6627 19.9025 25.15 20.5212 25.15H25.2473V19.3624C25.2473 12.646 29.2704 8.98884 35.1467 8.98884H39.9687C40.5856 8.98884 41.0859 9.4988 41.0859 10.128V15.1785C41.0859 15.8074 40.586 16.3173 39.9693 16.3176L37.0101 16.319C33.8144 16.319 33.1956 17.8674 33.1956 20.1397V25.1501H40.2177C40.8868 25.1501 41.4059 25.7458 41.327 26.4233L40.6307 32.4131C40.5641 32.9862 40.0874 33.4181 39.5214 33.4181H33.2269L33.1956 52H44.1284C47.9238 52 51.0006 48.8629 51.0006 44.993V7.0071C51.0005 3.13714 47.9237 0 44.1281 0Z" fill="#475993"/>
</g>
<defs>
<clipPath id="clip0">
<rect width="51" height="52" fill="white"/>
</clipPath>
</defs>
</svg>
