<?xml version="1.0" encoding="utf-8"?>
<!-- Generator: Adobe Illustrator 19.0.0, SVG Export Plug-In . SVG Version: 6.00 Build 0)  -->
<svg version="1.1" id="Capa_1" xmlns="http://www.w3.org/2000/svg" xmlns:xlink="http://www.w3.org/1999/xlink" x="0px" y="0px"
	 viewBox="193 -193.7 486.7 486.7" style="enable-background:new 193 -193.7 486.7 486.7;" xml:space="preserve">
<g>
	<rect x="359" y="71" style="fill:#FCFCFC;" width="147" height="165.4"/>
	<g>
		<path d="M596.9,2.8h-9.5v-44.4c0-82.1-65.2-150.7-146.6-152.1c-2.2,0-6.7,0-8.9,0c-81.4,1.5-146.6,70-146.6,152.1V2.8h-9.5
			c-14.6,0-26.5,15.1-26.5,33.7v222.6c0,18.6,11.9,33.8,26.5,33.8h321c14.6,0,26.5-15.2,26.5-33.8V36.5
			C623.4,17.9,611.5,2.8,596.9,2.8z M466.4,147.6v67.3c0,7.7-6.4,14.2-14.2,14.2h-31.8c-7.7,0-14.2-6.5-14.2-14.2v-67.3
			c-7.5-7.4-11.8-17.5-11.8-28.8c0-21.3,16.5-39.7,37.5-40.5c2.2-0.1,6.7-0.1,8.9,0c21,0.8,37.5,19.2,37.5,40.5
			C478.3,130.1,473.9,140.3,466.4,147.6z M524.9,2.8h-84.1h-8.9h-84.1v-44.4c0-48.9,39.7-89.3,88.5-89.3c48.8,0,88.5,40.4,88.5,89.3
			L524.9,2.8L524.9,2.8z"/>
	</g>
</g>
</svg>
