
<svg version="1.1" id="Capa_1" xmlns="http://www.w3.org/2000/svg" xmlns:xlink="http://www.w3.org/1999/xlink" x="0px" y="0px"
	 viewBox="-324 326 350 350" style="enable-background:new -324 326 350 350;" xml:space="preserve">
<path id="XMLID_33_" d="M-296.5,388c98.3,0,196.7,0,295,0c-2.7,5.4-4.1,12.3-8.3,16c-24.7,22.1-50.1,43.4-75.3,65
	c-21.2,18.1-42.4,36.1-64,54.5c-48.8-41.7-96.3-82.2-143.5-123.2C-295.4,397.9-295.3,392.2-296.5,388z"/>
<path id="XMLID_32_" d="M-1.5,614c-98.3,0-196.7,0-295,0c0.3-3.3-0.8-8.2,1-9.8c35.4-30.7,71.1-61.1,107.1-91.9
	c13.8,11.8,26.3,22.5,39.2,33.7c13.6-11.4,26.5-22.3,39.8-33.5c35.6,30.4,70,59.6,103.9,89.2C-2.7,604.1-2.7,609.8-1.5,614z"/>
<path id="XMLID_30_" d="M-308,411c14.3,11.2,28.9,22,42.8,33.7c21.9,18.5,43.2,37.5,67,58.3c-37.2,31.1-73.5,61.5-109.9,91.8
	C-308,533.6-308,472.3-308,411z"/>
<path id="XMLID_29_" d="M10,594.9c-36-30.1-72.1-60.1-111-92.6c38.2-31.4,74.6-61.3,111-91.3C10,472.3,10,533.6,10,594.9z"/>
</svg>
