<svg version="1.1" id="Capa_1" xmlns="http://www.w3.org/2000/svg" xmlns:xlink="http://www.w3.org/1999/xlink" x="0px" y="0px"
	 viewBox="-324 326 350 350" style="enable-background:new -324 326 350 350;" xml:space="preserve">
<path id="XMLID_22_" d="M-131.5,668.7c-14,0-28,0-41.9,0c-7.9-2-15.7-4-23.6-6.1c-39.5-10.7-70.2-34.6-97-64.6c0-0.9,0-1.7,0-2.6
	c1-3.2,2.3-6.4,3.1-9.7c9-38.4,28-70.2,61.9-91.7c3.2-2,10.6-2,13,0.2c34.7,33.5,92.4,33.5,127,0c2.3-2.2,9.5-2.7,11.8-0.8
	c12.4,10.2,24.9,20.4,35.5,32.3c17.5,19.7,23.6,45,30.7,69.6c0,0.9,0,1.7,0,2.6c-21,17.1-40.7,36.5-63.6,50.6
	C-91.4,658.9-112.4,662.2-131.5,668.7z"/>
<path id="XMLID_20_" d="M-139.4,333.3c26.4,7.6,48.5,20.7,61.5,46.4c21.5,42.3,2.5,94.8-41.6,114.1c-42.5,18.6-93.6-2.4-110.7-45.6
	c-17.7-44.8,5.8-95.3,51.1-110c4.5-1.5,8.9-3.2,13.4-4.8C-156.9,333.3-148.1,333.3-139.4,333.3z"/>
</svg>
