<?xml version="1.0" encoding="utf-8"?>
<!-- Generator: Adobe Illustrator 19.0.0, SVG Export Plug-In . SVG Version: 6.00 Build 0)  -->
<svg version="1.1" id="Capa_1" xmlns="http://www.w3.org/2000/svg" xmlns:xlink="http://www.w3.org/1999/xlink" x="0px" y="0px"
	 viewBox="-245 246.9 508.1 508.1" style="enable-background:new -245 246.9 508.1 508.1;" xml:space="preserve">
<style type="text/css">
	.st0{fill:#F6B44B;}
	.st1{fill:#FFD05C;}
	.st2{fill:#41596B;}
	.st3{fill:#334A5E;}
	.st4{fill:#F2705B;}
	.st5{fill:#FFFFFF;}
	.st6{fill:#89D6F7;}
</style>
<path class="st0" d="M60.9,607.2c0.9,3.2,1.6,6.6,2.1,9.9c0.7,4.6,0.9,9.2,0.8,13.9c-0.5,21.5-9.4,42.8-26.8,58.8
	c-3.4-3.5-6.4-7.3-9-11.1c-4.1,13.7-11.8,26.6-23.3,37.2c-10.9-11.2-18-24.4-21.4-38.3c-2.8,3.7-6,7.3-9.6,10.6
	c-20-20.4-27.4-48.1-22.4-73.9c0.6-3.3,1.5-6.6,2.6-9.8c0.2,0.3,0.4,0.6,0.6,0.9c6-4.4,12.6-8,19.7-10.7c4.6-1.8,9.4-3.2,14.4-4.2
	c6.2-1.3,12.7-1.8,19.3-1.7c6.6,0.2,12.9,1.1,19.1,2.7c4.9,1.2,9.7,2.8,14.2,4.8c6.9,3.1,13.4,7,19.2,11.7
	C60.5,607.7,60.7,607.4,60.9,607.2z"/>
<path class="st1" d="M41.2,596.4c5.7,10.4,8.6,22.1,8.3,34.2c-0.3,13.3-4.5,25.9-11.9,36.7L22.8,646l-8.6,28.6c-2,6.7-5,13-8.9,18.8
	c-3.6-6-6.3-12.4-8-19.2l-7.2-29l-15.9,20.6c-6.8-11.1-10.4-24-10-37.2c0.3-12.1,3.8-23.7,10-33.8c4.6-1.8,9.4-3.2,14.4-4.2
	c6.2-1.3,12.7-1.8,19.3-1.7s12.9,1.1,19.1,2.7C31.9,592.7,36.6,594.3,41.2,596.4z"/>
<path class="st2" d="M98.1,661.9c0.2-2.2,0.4-4.5,0.4-6.9c0.6-23-7.4-44.2-20.9-60.7c-16.4-20-41.1-33.1-69-33.8
	c-28-0.7-53.2,11.1-70.6,30.4c-14.3,15.8-23.3,36.6-23.9,59.6c-0.1,2.3,0,4.6,0.1,6.9c-14.9-20.1-23.5-45.1-22.8-72.1
	c0.6-25.2,9.2-48.3,23.1-67c21.8-29.1,57-47.6,96.2-46.7c39.1,1,73.4,21.1,93.8,51.3c13.1,19.4,20.5,42.9,19.8,68
	C123.7,617.9,113.9,642.5,98.1,661.9z"/>
<path class="st3" d="M104.5,523c-5.1,24.7-14,48.8-26.9,71.3c-16.4-20-41.1-33.1-69-33.8c-28-0.7-53.2,11.1-70.6,30.4
	c-11.8-23.2-19.5-47.7-23.4-72.6c21.8-29.1,57-47.6,96.2-46.7C49.9,472.6,84.1,492.8,104.5,523z"/>
<path class="st4" d="M60.4,608c-9.7-7.7-20.9-13.4-33.3-16.5c-6.2-1.6-12.5-2.5-19.1-2.6c-6.6-0.2-13,0.4-19.3,1.7
	c-12.5,2.4-24.1,7.6-34.1,14.8c-50.1-80.6-47.3-184.2,7.2-262c8.9-12.7,19.2-24.7,31-35.9L15.3,286l21.5,22.6
	c11.1,11.7,20.9,24.3,29.2,37.4C116.6,426.3,114.3,529.9,60.4,608z"/>
<path class="st5" d="M12.8,387.2c-28.8-0.7-52.7,22.1-53.4,50.8c-0.4,14.4,5.1,27.6,14.4,37.2c9.2,9.6,22.1,15.8,36.4,16.1
	s27.5-5.1,37.1-14.2c9.8-9.2,15.9-22.1,16.2-36.6C64.3,411.8,41.6,387.9,12.8,387.2z"/>
<circle class="st6" cx="11.5" cy="439.3" r="34.7"/>
<path class="st2" d="M9.5,523.5L9.5,523.5L9.5,523.5c-16.7,32.7-18,86.4-2.9,119.9l0,0C23.2,610.7,24.6,557,9.5,523.5z"/>
<path class="st3" d="M65.9,345.9l-104.2-2.5c8.9-12.7,19.2-24.7,31-35.9L15.3,286l21.5,22.6C47.9,320.2,57.6,332.8,65.9,345.9z"/>
</svg>
