<?xml version="1.0" encoding="iso-8859-1"?>
<!-- Generator: Adobe Illustrator 19.0.0, SVG Export Plug-In . SVG Version: 6.00 Build 0)  -->
<svg version="1.1" id="Capa_1" xmlns="http://www.w3.org/2000/svg" xmlns:xlink="http://www.w3.org/1999/xlink" x="0px" y="0px"
	 viewBox="0 0 512.008 512.008" style="enable-background:new 0 0 512.008 512.008;" xml:space="preserve">
<circle style="fill:#FFD83B;" cx="259.273" cy="256.004" r="195.76"/>
<g>
	<path style="fill:#F3C432;" d="M454.969,256.052c0,4.272-0.144,8.416-0.416,12.544c-39.984,31.984-98.16,62.448-165.984,84.368
		c-65.616,21.232-128.752,30.736-179.072,29.088c-14.064-16.544-25.232-35.424-33.088-56.112
		c36.944,21.088,115.936,19.024,200.72-8.272c89.184-28.944,156.736-76.928,169.84-117.04
		C452.217,218.132,454.969,236.74,454.969,256.052z"/>
	<circle style="fill:#F3C432;" cx="190.729" cy="144.484" r="36.736"/>
	<circle style="fill:#F3C432;" cx="359.145" cy="160.964" r="27.264"/>
	<circle style="fill:#F3C432;" cx="212.905" cy="272.164" r="24"/>
	<circle style="fill:#F3C432;" cx="190.729" cy="381.14" r="20"/>
	<circle style="fill:#F3C432;" cx="408.777" cy="276.5" r="20"/>
	<circle style="fill:#F3C432;" cx="359.145" cy="373.684" r="15.968"/>
	<circle style="fill:#F3C432;" cx="304.169" cy="322.404" r="10.08"/>
	<circle style="fill:#F3C432;" cx="304.169" cy="217.38" r="10.08"/>
	<circle style="fill:#F3C432;" cx="127.673" cy="242.084" r="10.08"/>
</g>
<path style="fill:#5B5F63;" d="M509.865,169.956c-9.648-29.632-50.448-45.904-107.808-47.84c8.816,9.376,16.672,19.568,23.44,30.608
	c11.312,5.936,19.024,13.792,22.192,23.712c2.48,7.584,2.064,15.584-0.688,24.128c-13.104,40.112-80.64,88.096-169.84,117.04
	c-84.784,27.296-163.776,29.36-200.72,8.272c-10.208-5.792-17.088-13.376-20.128-22.752c-3.728-11.584-0.96-24.816,7.44-38.32
	c-0.272-2.896-0.272-5.936-0.272-8.816c0-8.96,0.544-17.776,1.792-26.336c-47.84,35.84-73.056,74.16-63.136,104.64
	c9.52,29.632,50.32,45.76,107.392,47.696c50.32,1.648,113.456-7.856,179.072-29.088c67.824-21.92,126-52.384,165.984-84.368
	C497.321,234.468,519.241,198.772,509.865,169.956z"/>
<g>
</g>
<g>
</g>
<g>
</g>
<g>
</g>
<g>
</g>
<g>
</g>
<g>
</g>
<g>
</g>
<g>
</g>
<g>
</g>
<g>
</g>
<g>
</g>
<g>
</g>
<g>
</g>
<g>
</g>
</svg>
