
<svg version="1.1" id="Capa_1" xmlns="http://www.w3.org/2000/svg" xmlns:xlink="http://www.w3.org/1999/xlink" x="0px" y="0px"
	 viewBox="-324 326 350 350" style="enable-background:new -324 326 350 350;" xml:space="preserve">
<path id="XMLID_28_" d="M-246.8,378.1c15.2,4.1,31.1,6.7,45.5,12.7c10.9,4.5,20.7,12.4,29.9,20.1c9.5,8,13.9,18.6,13.7,32
	c-0.7,50.6-0.3,101.1-0.3,151.7c0,4.4,0,8.8,0,16.6c-23.7-22.3-49.9-32-78.5-35.8c-7-0.9-14.1-1.3-21.2-1.7c-9-0.4-14.1-4.7-14.1-14
	c0-56-0.2-112,0.3-168c0-4.6,4.7-9.1,7.2-13.7C-258.5,378.1-252.7,378.1-246.8,378.1z"/>
<path id="XMLID_27_" d="M-33.6,378.1c2.5,6.2,7.1,12.4,7.2,18.7c0.6,52.7,0.4,105.3,0.3,158c0,15.4-2.8,18.2-17.9,19.1
	c-34.6,1.9-66.8,10.2-94.7,36.4c-0.5-5.2-1.2-8.5-1.2-11.9c-0.1-53.1,0.3-106.2-0.3-159.2c-0.1-13.4,6.9-21.9,15.3-30.1
	c17.1-16.7,38.3-24.8,61.5-28.5c4.1-0.7,8.1-1.6,12.2-2.4C-45.3,378.1-39.5,378.1-33.6,378.1z"/>
<path id="XMLID_26_" d="M-309.5,425.8c5.6-3.2,11.3-6.4,19.9-11.2c0,8.7,0,13.1,0,17.5c0,41.3-0.1,82.6,0,123.9
	c0.1,23.7,10.2,34.1,33.9,35.6c23.1,1.4,45.6,5.2,65.7,17.6c3.7,2.3,7.1,5.1,10.3,8.6c-38-3-75.5-4.8-112.3,6.1
	c-5.9,0-11.7,0-17.6,0C-309.5,557.8-309.5,491.8-309.5,425.8z"/>
<path id="XMLID_25_" d="M-6.1,623.9c-32.9-9.9-66.5-9.3-100.2-6.3c-3.3,0.3-6.6,1-9.9,1.3c-0.6,0.1-1.2-0.7-2.7-1.5
	c12.1-11.4,26.5-17.5,41.9-20.8c11.8-2.6,23.8-4,35.9-4.9c22.1-1.8,32.5-12.2,32.6-34.4c0.2-41.3,0.1-82.6,0.1-123.9
	c0-4.5,0-9.1,0-18.1c8.2,4.4,14.1,7.5,19.9,10.6c0,66,0,132.1,0,198.1C5.6,623.9-0.2,623.9-6.1,623.9z"/>
</svg>
