<svg width="51" height="52" viewBox="0 0 51 52" fill="none" xmlns="http://www.w3.org/2000/svg">
<g clip-path="url(#clip0)">
<path d="M50.1889 9.40463C49.0558 9.91695 47.8795 10.3211 46.6725 10.6137C48.0025 9.32514 49.0024 7.71336 49.5666 5.91434C49.7276 5.40075 49.1805 4.95663 48.7257 5.23162C47.0465 6.24714 45.2378 7.00897 43.3497 7.49619C43.2401 7.52446 43.1271 7.53879 43.0137 7.53879C42.6698 7.53879 42.3354 7.40858 42.0724 7.17226C40.0635 5.36702 37.4798 4.3728 34.7974 4.3728C33.6366 4.3728 32.4647 4.55727 31.314 4.92113C27.7488 6.0486 24.998 9.0471 24.1349 12.7466C23.8111 14.1342 23.7235 15.5231 23.8742 16.8746C23.8915 17.0299 23.8195 17.1383 23.7751 17.1891C23.6971 17.2783 23.5866 17.3293 23.4718 17.3293C23.459 17.3293 23.4458 17.3287 23.4327 17.3274C15.6287 16.5882 8.59139 12.7547 3.61704 6.53328C3.36338 6.21595 2.87695 6.25487 2.67476 6.60846C1.70066 8.31241 1.18588 10.2613 1.18588 12.2444C1.18588 15.2836 2.38343 18.1477 4.46357 20.2357C3.58881 20.0242 2.74216 19.6912 1.95569 19.2458C1.5752 19.0302 1.10705 19.3073 1.1017 19.751C1.04724 24.2659 3.63979 28.2834 7.52353 30.0924C7.44532 30.0943 7.36711 30.0952 7.28877 30.0952C6.67315 30.0952 6.04981 30.0346 5.4363 29.9151C5.00782 29.8316 4.64784 30.2461 4.78089 30.6697C6.04148 34.6824 9.43008 37.6402 13.4852 38.3118C10.1197 40.6153 6.20052 41.8304 2.12144 41.8304L0.849779 41.8296C0.457974 41.8296 0.126599 42.09 0.0267513 42.4769C-0.0716042 42.858 0.109564 43.2601 0.443674 43.4582C5.04015 46.1857 10.2831 47.6272 15.608 47.6272C20.269 47.6272 24.6289 46.684 28.5669 44.8242C32.1769 43.1191 35.3671 40.6817 38.0487 37.5798C40.5467 34.6902 42.5002 31.3544 43.8545 27.6653C45.1456 24.1488 45.828 20.3966 45.828 16.8142V16.6436C45.8278 16.0684 46.083 15.5272 46.5281 15.1587C48.2173 13.7603 49.6883 12.1142 50.9001 10.2661C51.22 9.77812 50.7154 9.16653 50.1889 9.40463Z" fill="#76A9EA"/>
</g>
<defs>
<clipPath id="clip0">
<rect width="51" height="52" fill="white"/>
</clipPath>
</defs>
</svg>
