<svg width="52" height="48" viewBox="0 0 52 48" fill="none" xmlns="http://www.w3.org/2000/svg">
<g clip-path="url(#clip0)">
<path d="M24.7392 0.0277589C11.006 0.631353 0.168664 11.1886 0.210325 23.8797C0.22301 27.7451 1.23395 31.3936 3.01729 34.6172L0.279221 46.8858C0.131106 47.5494 0.779528 48.1305 1.49374 47.9744L14.5173 45.1262C17.8632 46.6647 21.6214 47.5533 25.5989 47.6093C39.6355 47.8072 51.3396 37.5191 51.7771 24.5671C52.246 10.6834 39.8325 -0.635759 24.7392 0.0277589ZM40.2791 36.9867C36.465 40.5074 31.3939 42.4463 26.0001 42.4463C22.8418 42.4463 19.8181 41.7922 17.0126 40.5022L15.1989 39.6682L7.21413 41.4145L8.89488 33.8831L8.00134 32.2679C6.54494 29.6351 5.80648 26.7881 5.80648 23.806C5.80648 18.827 7.90695 14.1461 11.721 10.6253C15.501 7.13612 20.6548 5.16566 26.0005 5.16566C31.3943 5.16577 36.4651 7.10467 40.2792 10.6252C44.0932 14.1459 46.1937 18.8268 46.1938 23.8057C46.1937 28.7403 44.059 33.4976 40.2791 36.9867Z" fill="#7AD06D"/>
<path d="M38.5164 28.9688L33.5209 27.6447C32.8641 27.4707 32.1569 27.6426 31.6784 28.0927L30.4568 29.2416C29.9416 29.7261 29.16 29.8817 28.4783 29.6271C26.1152 28.7443 21.1442 24.6645 19.8747 22.6238C19.5084 22.0351 19.569 21.2991 20.0187 20.762L21.0852 19.4884C21.5031 18.9893 21.5912 18.3192 21.3149 17.7423L19.2132 13.3545C18.7098 12.3035 17.2549 11.9976 16.3044 12.7397C14.9102 13.8281 13.2559 15.4822 13.0548 17.3147C12.7003 20.5455 14.2013 24.6182 19.8775 29.5085C26.4351 35.1582 31.6864 35.9046 35.1055 35.14C37.0448 34.7065 38.5946 32.9682 39.5727 31.545C40.2395 30.5746 39.713 29.2859 38.5164 28.9688Z" fill="#7AD06D"/>
</g>
<defs>
<clipPath id="clip0">
<rect width="52" height="48" fill="white"/>
</clipPath>
</defs>
</svg>
